<?xml version="1.0" ?><!DOCTYPE svg  PUBLIC '-//W3C//DTD SVG 1.1//EN'  'http://www.w3.org/Graphics/SVG/1.1/DTD/svg11.dtd'><svg height="67px" id="Layer_1" style="enable-background:new 0 0 67 67;" version="1.1" viewBox="0 0 67 67" width="67px" xml:space="preserve" xmlns="http://www.w3.org/2000/svg" xmlns:xlink="http://www.w3.org/1999/xlink"><path d="M56.022,34c0,12.161-9.862,22.021-22.022,22.021  c-12.161,0-22.022-9.86-22.022-22.021S21.839,11.978,34,11.978C46.16,11.978,56.022,21.839,56.022,34z M54.713,34  c0,11.438-9.275,20.713-20.713,20.713S13.287,45.438,13.287,34c0-11.438,9.275-20.713,20.713-20.713S54.713,22.562,54.713,34z   M15.063,34c0-2.801,0.609-5.461,1.702-7.853l9.132,24.971C19.494,48.081,15.063,41.557,15.063,34z M34,52.936  c-1.916,0-3.764-0.285-5.507-0.814l5.833-16.719l6.014,16.445C38.357,52.551,36.225,52.936,34,52.936z M52.937,34  c0,7.163-3.979,13.398-9.849,16.615l5.907-16.728c0.915-2.589,1.764-6.088,1.66-8.905C52.11,27.664,52.937,30.736,52.937,34z   M46.81,20.056c-3.372-3.099-7.87-4.992-12.81-4.992c-6.66,0-12.518,3.44-15.893,8.64c2.151-0.022,4.46-0.046,6.761-0.168  c0.099-0.006,0.181,0.084,0.181,0.188v1.134c0,0.104-0.081,0.189-0.181,0.189h-2.192c-0.246,0-0.349,0.148-0.263,0.401l6.877,20.259  l4.185-12.634l-2.782-7.608c-0.101-0.275-0.221-0.418-0.649-0.418h-1.924c-0.099,0-0.181-0.085-0.181-0.189v-1.134  c0-0.104,0.082-0.193,0.181-0.189c3.581,0.16,7.184,0.159,10.809,0c0.1-0.004,0.181,0.085,0.181,0.189v1.134  c0,0.104-0.081,0.189-0.181,0.189h-1.914c-0.379,0-0.502,0.175-0.396,0.484l6.77,19.941l2.486-7.566  c3.005-9.147-2.572-10.115-2.434-14.663C43.508,20.994,45.157,20.012,46.81,20.056z M34,64C17.432,64,4,50.568,4,34  C4,17.431,17.432,4,34,4s30,13.431,30,30C64,50.568,50.568,64,34,64z" style="fill-rule:evenodd;clip-rule:evenodd;fill:#010101;"/></svg>