<?xml version="1.0" encoding="utf-8"?>
<!-- Generator: Adobe Illustrator 22.0.0, SVG Export Plug-In . SVG Version: 6.00 Build 0)  -->
<svg version="1.1" xmlns="http://www.w3.org/2000/svg" xmlns:xlink="http://www.w3.org/1999/xlink" x="0px" y="0px"
	 viewBox="0 0 840 630" style="enable-background:new 0 0 840 630;" xml:space="preserve">
<style type="text/css">
	.st0{display:none;}
	.st1{display:inline;fill:#00303F;}
	.st2{fill:#7FB8FF;}
	.st3{fill:#9494FF;}
	.st4{display:inline;fill:#7FB8FF;}
	.st5{display:inline;fill:#FFFFFF;}
	.st6{display:inline;fill:#9494FF;}
	.st7{display:inline;}
	.st8{fill:#FFFFFF;}
</style>
<g id="Layer_2" class="st0">
	<rect x="61.2" y="46.4" class="st1" width="729.7" height="540"/>
</g>
<g id="Layer_1">
	<g>
		<g>
			<path class="st2" d="M427.6,338.4h-30.3c-1.6,0-2.9,0.7-3.9,2c-1,1.3-1.5,2.7-1.5,4.3c0,1.9,0.6,3.6,1.7,5.1
				c1.1,1.5,2.7,2.2,4.8,2.2h29.2c1.1,0,1.7-0.6,1.7-1.7v-10.2C429.3,339,428.7,338.4,427.6,338.4z"/>
			<path class="st2" d="M520.2,306c-0.8,1.3-1.2,2.7-1.2,4.3c0,1.5,0.4,2.9,1.3,4.4c0.9,1.5,2.1,2.2,3.8,2.2h12.6l-1.8-12.9h-10.9
				C522.3,304.1,521,304.7,520.2,306z"/>
			<path class="st2" d="M499.7,371.9c-1.1,0-1.7-0.6-1.7-1.7v-17.3c0-1.1,0.6-1.7,1.7-1.7h41.7l-2-14.6h-18.3c-4.1,0-7.5-0.7-10.4-2
				c-2.8-1.3-5.1-3.1-6.8-5.4c-1.7-2.3-2.9-5.1-3.7-8.3c-0.8-3.2-1.2-6.8-1.2-10.6c0-5.7,0.7-10.3,2-13.8c1.3-3.5,3.3-6.2,5.9-8.2
				c2.7-1.9,6.1-3.2,10.2-3.9c4.1-0.7,9.1-1,14.9-1h0.2l-15-110.5L307.8,87.1L128.9,225.6l30.5,224.2l209.4,85.7L547.6,397
				l-3.4-25.2H499.7z M241,431.7c0,2.3-1.1,3.4-3.4,3.4h-42.9c-2.3,0-3.4-1.1-3.4-3.4V192.6c0-2.3,1.1-3.4,3.4-3.4h42.9
				c2.3,0,3.4,1.1,3.4,3.4V431.7z M365.1,434.1c-0.5,0.7-1,1-1.7,1h-52.1c-0.9,0-1.6-0.3-2.1-1c-0.5-0.7-0.8-1.3-1-1.7l-53.9-96
				c-6.9-11.9-10.3-20.5-10.3-25.7c0-0.9,0.1-1.9,0.3-2.9c0.2-1,0.7-2.5,1.4-4.5c0.7-1.9,1.7-4.3,3.1-7s3.2-6.3,5.5-10.6l51.8-93.6
				c0.2-0.5,0.6-1,1-1.7c0.5-0.7,1.1-1,2.1-1h52.1c0.7,0,1.3,0.3,1.7,1c0.5,0.7,0.2,1.8-0.7,3.4l-63.8,109.4
				c-0.5,0.5-1.2,1.6-2.2,3.4c-1,1.8-1.5,3-1.5,3.4c0,0.7,0.4,1.8,1.2,3.4c0.8,1.6,1.4,2.7,1.9,3.4l66.5,113.9
				C365.3,432.3,365.6,433.4,365.1,434.1z M450,370.2c0,1.1-0.6,1.7-1.7,1.7H389c-3.4,0-6.2-1-8.3-3.1c-2.2-2.1-3.8-4.6-5-7.4
				c-1.2-2.8-2-5.7-2.5-8.5c-0.5-2.8-0.7-5-0.7-6.5c0-2.7,0.3-5.7,1-9c0.7-3.3,1.8-6.3,3.2-9.1c1.5-2.8,3.4-5.1,5.8-7.1
				c2.4-1.9,5.3-2.9,8.7-2.9h28.4c2.9,0,5.3-0.7,7.1-2.1c1.8-1.4,2.6-3.1,2.6-5c0-1.6-0.6-3.2-1.7-4.8c-1.1-1.6-2.6-2.4-4.4-2.4
				h-44.7c-1.1,0-1.7-0.6-1.7-1.7V285c0-1.1,0.6-1.7,1.7-1.7h47.9c4.3,0,8,0.9,11,2.8c3,1.9,5.4,4.3,7.3,7.2
				c1.9,2.9,3.2,6.2,4.1,9.9c0.9,3.6,1.3,7.3,1.3,10.9V370.2z M484.4,370.2c0,1.1-0.6,1.7-1.7,1.7h-17.3c-1.1,0-1.7-0.6-1.7-1.7V285
				c0-1.1,0.6-1.7,1.7-1.7h17.3c1.1,0,1.7,0.6,1.7,1.7V370.2z M484.4,269c0,1.1-0.6,1.7-1.7,1.7h-17.3c-1.1,0-1.7-0.6-1.7-1.7v-17.3
				c0-1.1,0.6-1.7,1.7-1.7h17.3c1.1,0,1.7,0.6,1.7,1.7V269z"/>
		</g>
		<path class="st3" d="M588.8,250h17.3c1.1,0,1.7,0.6,1.7,1.7v118.5c0,1.1-0.6,1.7-1.7,1.7h-17.3c-1.1,0-1.7-0.6-1.7-1.7v-17.3v-0.3
			V251.7C587.1,250.6,587.6,250,588.8,250z M641.8,284.7c0.7-0.9,1.6-1.4,2.9-1.4h22.1c0.6,0,0.9,0.2,0.9,0.5
			c0.1,0.3-0.1,0.7-0.6,1.2l-31.8,36.2c-0.2,0.2-0.5,0.5-0.8,0.9c-0.3,0.3-0.4,0.6-0.4,0.9c0,0.2,0.1,0.6,0.4,1
			c0.3,0.5,0.5,0.8,0.8,1l33.7,45.7c0.6,0.8,0.4,1.2-0.5,1.2h-21.9c-1.1,0-2.1-0.5-2.9-1.5l-29.6-40.1c-0.8-1-1.5-2.2-2-3.5
			c-0.6-1.3-0.9-2.6-0.9-3.8c0-0.9,0.3-2,0.9-3.3c0.6-1.3,1.3-2.5,2.2-3.7L641.8,284.7z"/>
		<path class="st3" d="M679.4,250h17.3c1.1,0,1.7,0.6,1.7,1.7V269c0,1.1-0.6,1.7-1.7,1.7h-17.3c-1.1,0-1.7-0.6-1.7-1.7v-17.3
			C677.7,250.6,678.2,250,679.4,250z M677.7,285c0-1.1,0.6-1.7,1.7-1.7h17.3c1.1,0,1.7,0.6,1.7,1.7v85.2c0,1.1-0.6,1.7-1.7,1.7
			h-17.3c-1.1,0-1.7-0.6-1.7-1.7V285z"/>
		<path class="st3" d="M714.4,250h17.3c1.1,0,1.7,0.6,1.7,1.7V269c0,1.1-0.6,1.7-1.7,1.7h-17.3c-1.1,0-1.7-0.6-1.7-1.7v-17.3
			C712.7,250.6,713.2,250,714.4,250z M712.7,285c0-1.1,0.6-1.7,1.7-1.7h17.3c1.1,0,1.7,0.6,1.7,1.7v85.2c0,1.1-0.6,1.7-1.7,1.7
			h-17.3c-1.1,0-1.7-0.6-1.7-1.7V285z"/>
		<g>
			<path class="st3" d="M535,304.1h33.7c1.1,0,1.7-0.6,1.7-1.7V285c0-1.1-0.6-1.7-1.7-1.7h-36.5L535,304.1z"/>
			<path class="st3" d="M572.5,332.5c-1-3.9-2.4-7-4.4-9.3c-2-2.3-4.6-3.9-7.7-4.8c-3.2-1-7-1.4-11.4-1.4h-12.2l2.7,19.5h8.4
				c2.3,0,3.8,0.7,4.5,2.2c0.7,1.5,1.1,2.9,1.1,4.4c0,0.8-0.1,1.7-0.2,2.6c-0.1,1-0.4,1.8-0.9,2.6c-0.5,0.8-1.2,1.4-2.1,2
				c-0.9,0.5-2.2,0.8-3.7,0.8h-5l2.8,20.7h11c3.9,0,7-1,9.4-2.9c2.4-1.9,4.3-4.2,5.7-6.9c1.4-2.7,2.3-5.4,2.8-8.2
				c0.5-2.8,0.8-5,0.8-6.7C574,341.3,573.5,336.4,572.5,332.5z"/>
		</g>
	</g>
	<g class="st0">
		<polygon class="st4" points="159.3,450.6 128.9,226.4 307.8,88 517.2,173.7 547.6,397.9 368.7,536.3 		"/>
		<path class="st5" d="M378.5,284.2h47.9c4.3,0,8,0.9,11,2.8c3,1.9,5.4,4.3,7.3,7.2c1.9,2.9,3.2,6.2,4.1,9.9
			c0.9,3.6,1.3,7.3,1.3,10.9V371c0,1.1-0.6,1.7-1.7,1.7H389c-3.4,0-6.2-1-8.3-3.1c-2.2-2.1-3.8-4.6-5-7.4c-1.2-2.8-2-5.7-2.5-8.5
			c-0.5-2.8-0.7-5-0.7-6.5c0-2.7,0.3-5.7,1-9c0.7-3.3,1.8-6.3,3.2-9.1c1.5-2.8,3.4-5.1,5.8-7.1c2.4-1.9,5.3-2.9,8.7-2.9h28.4
			c2.9,0,5.3-0.7,7.1-2.1c1.8-1.4,2.6-3.1,2.6-5c0-1.6-0.6-3.2-1.7-4.8c-1.1-1.6-2.6-2.4-4.4-2.4h-44.7c-1.1,0-1.7-0.6-1.7-1.7
			v-17.3C376.8,284.7,377.3,284.2,378.5,284.2z M427.6,352.8c1.1,0,1.7-0.6,1.7-1.7v-10.2c0-1.1-0.6-1.7-1.7-1.7h-30.3
			c-1.6,0-2.9,0.7-3.9,2c-1,1.3-1.5,2.8-1.5,4.3c0,1.9,0.6,3.6,1.7,5.1c1.1,1.5,2.7,2.2,4.8,2.2H427.6z"/>
		<path class="st5" d="M465.3,250.8h17.3c1.1,0,1.7,0.6,1.7,1.7v17.3c0,1.1-0.6,1.7-1.7,1.7h-17.3c-1.1,0-1.7-0.6-1.7-1.7v-17.3
			C463.6,251.4,464.2,250.8,465.3,250.8z M463.6,285.9c0-1.1,0.6-1.7,1.7-1.7h17.3c1.1,0,1.7,0.6,1.7,1.7V371c0,1.1-0.6,1.7-1.7,1.7
			h-17.3c-1.1,0-1.7-0.6-1.7-1.7V285.9z"/>
		<path class="st6" d="M499.7,352h46.8c1.6,0,2.8-0.3,3.7-0.8c0.9-0.5,1.6-1.2,2.1-2c0.5-0.8,0.8-1.7,0.9-2.6c0.1-1,0.2-1.8,0.2-2.6
			c0-1.5-0.4-2.9-1.1-4.4c-0.7-1.5-2.2-2.2-4.5-2.2h-26.7c-4.1,0-7.5-0.7-10.4-2c-2.8-1.3-5.1-3.1-6.8-5.4c-1.7-2.3-2.9-5.1-3.7-8.3
			c-0.8-3.2-1.2-6.8-1.2-10.6c0-5.7,0.7-10.3,2-13.8c1.3-3.5,3.3-6.2,5.9-8.2c2.7-1.9,6.1-3.2,10.2-3.9c4.1-0.7,9.1-1,14.9-1h36.7
			c1.1,0,1.7,0.6,1.7,1.7v17.3c0,1.1-0.6,1.7-1.7,1.7h-44.5c-1.8,0-3.1,0.7-3.9,2c-0.8,1.3-1.2,2.7-1.2,4.3c0,1.5,0.4,2.9,1.3,4.4
			c0.9,1.5,2.1,2.2,3.8,2.2H549c4.4,0,8.2,0.5,11.4,1.4c3.2,1,5.8,2.6,7.7,4.8c2,2.3,3.5,5.4,4.4,9.3c1,3.9,1.4,8.8,1.4,14.7
			c0,1.7-0.3,3.9-0.8,6.7c-0.5,2.8-1.4,5.5-2.8,8.2c-1.4,2.7-3.3,5-5.7,6.9c-2.4,1.9-5.6,2.9-9.4,2.9h-55.6c-1.1,0-1.7-0.6-1.7-1.7
			v-17.3C498,352.6,498.5,352,499.7,352z"/>
		<g class="st7">
			<path class="st8" d="M541.4,352h-41.7c-1.1,0-1.7,0.6-1.7,1.7V371c0,1.1,0.6,1.7,1.7,1.7h44.6L541.4,352z"/>
			<path class="st8" d="M506.9,289.1c-2.7,1.9-4.6,4.6-5.9,8.2c-1.3,3.5-2,8.1-2,13.8c0,3.9,0.4,7.4,1.2,10.6c0.8,3.2,2,6,3.7,8.3
				c1.7,2.3,4,4.1,6.8,5.4c2.8,1.3,6.3,2,10.4,2h18.3l-2.7-19.6h-12.6c-1.7,0-3-0.7-3.8-2.2c-0.9-1.5-1.3-2.9-1.3-4.4
				c0-1.6,0.4-3,1.2-4.3c0.8-1.3,2.1-2,3.9-2H535l-2.8-20.7H532c-5.8,0-10.7,0.3-14.9,1C513,285.9,509.6,287.2,506.9,289.1z"/>
		</g>
		<path class="st6" d="M588.8,250.8h17.3c1.1,0,1.7,0.6,1.7,1.7V371c0,1.1-0.6,1.7-1.7,1.7h-17.3c-1.1,0-1.7-0.6-1.7-1.7v-17.3v-0.3
			V252.5C587.1,251.4,587.6,250.8,588.8,250.8z M641.8,285.5c0.7-0.9,1.6-1.4,2.9-1.4h22.1c0.6,0,0.9,0.2,0.9,0.5
			c0.1,0.3-0.1,0.7-0.6,1.2l-31.8,36.2c-0.2,0.2-0.5,0.5-0.8,0.9c-0.3,0.3-0.4,0.6-0.4,0.8c0,0.2,0.1,0.6,0.4,1
			c0.3,0.5,0.5,0.8,0.8,1l33.7,45.7c0.6,0.8,0.4,1.2-0.5,1.2h-21.9c-1.1,0-2.1-0.5-2.9-1.5l-29.6-40.1c-0.8-1-1.5-2.2-2-3.5
			c-0.6-1.3-0.9-2.6-0.9-3.8c0-0.9,0.3-2,0.9-3.3c0.6-1.3,1.3-2.5,2.2-3.7L641.8,285.5z"/>
		<path class="st6" d="M679.4,250.8h17.3c1.1,0,1.7,0.6,1.7,1.7v17.3c0,1.1-0.6,1.7-1.7,1.7h-17.3c-1.1,0-1.7-0.6-1.7-1.7v-17.3
			C677.7,251.4,678.2,250.8,679.4,250.8z M677.7,285.9c0-1.1,0.6-1.7,1.7-1.7h17.3c1.1,0,1.7,0.6,1.7,1.7V371c0,1.1-0.6,1.7-1.7,1.7
			h-17.3c-1.1,0-1.7-0.6-1.7-1.7V285.9z"/>
		<path class="st6" d="M714.4,250.8h17.3c1.1,0,1.7,0.6,1.7,1.7v17.3c0,1.1-0.6,1.7-1.7,1.7h-17.3c-1.1,0-1.7-0.6-1.7-1.7v-17.3
			C712.7,251.4,713.2,250.8,714.4,250.8z M712.7,285.9c0-1.1,0.6-1.7,1.7-1.7h17.3c1.1,0,1.7,0.6,1.7,1.7V371c0,1.1-0.6,1.7-1.7,1.7
			h-17.3c-1.1,0-1.7-0.6-1.7-1.7V285.9z"/>
		<g class="st7">
			<path class="st8" d="M194.7,190h42.9c2.3,0,3.4,1.1,3.4,3.4v239.1c0,2.3-1.1,3.4-3.4,3.4h-42.9c-2.3,0-3.4-1.1-3.4-3.4V193.5
				C191.2,191.2,192.4,190,194.7,190z M363.1,191.1c0.5,0.7,0.2,1.8-0.7,3.4l-63.8,109.4c-0.5,0.5-1.2,1.6-2.2,3.4
				c-1,1.8-1.5,3-1.5,3.4c0,0.7,0.4,1.8,1.2,3.4c0.8,1.6,1.4,2.7,1.9,3.4l66.5,113.9c0.9,1.6,1.1,2.7,0.7,3.4c-0.5,0.7-1,1-1.7,1
				h-52.1c-0.9,0-1.6-0.3-2.1-1c-0.5-0.7-0.8-1.3-1-1.7l-53.9-96c-6.9-11.9-10.3-20.5-10.3-25.7c0-0.9,0.1-1.9,0.3-2.9
				c0.2-1,0.7-2.5,1.4-4.5c0.7-1.9,1.7-4.3,3.1-7s3.2-6.3,5.5-10.6l51.8-93.6c0.2-0.5,0.6-1,1-1.7c0.5-0.7,1.1-1,2.1-1h52.1
				C362,190,362.6,190.4,363.1,191.1z"/>
		</g>
	</g>
</g>
</svg>
